P3
30 30
255
0 0 0
0 0 0
0 0 0
0 0 0
0 0 0
0 0 0
0 0 0
0 0 0
0 0 0
0 0 0
0 0 0
0 0 0
0 0 0
0 0 0
0 0 0
0 0 0
0 0 0
0 0 0
0 0 0
0 0 0
0 0 0
0 0 0
0 0 0
0 0 0
0 0 0
0 0 0
0 0 0
0 0 0
0 0 0
0 0 0
0 0 0
255 89 0
255 89 0
255 89 0
255 89 0
255 89 0
255 89 0
255 89 0
255 89 0
255 89 0
255 89 0
255 89 0
255 89 0
255 89 0
255 89 0
255 89 0
255 89 0
255 89 0
255 89 0
255 89 0
255 89 0
255 89 0
255 89 0
255 89 0
255 89 0
255 89 0
255 89 0
255 89 0
255 89 0
0 0 0
0 0 0
0 0 0
0 0 0
0 0 0
0 0 0
255 178 0
0 0 0
0 0 0
0 0 0
0 0 0
0 0 0
0 0 0
0 0 0
0 0 0
0 0 0
0 0 0
0 0 0
0 0 0
0 0 0
0 0 0
0 0 0
0 212 255
0 0 0
0 0 0
0 0 0
0 0 0
0 0 0
0 0 0
0 0 0
0 0 0
0 0 0
0 0 0
0 0 0
0 0 0
0 0 0
255 178 0
0 0 0
0 0 0
0 0 0
0 0 0
0 255 29
0 0 0
0 0 0
0 0 0
0 0 0
0 0 0
0 0 0
0 0 0
0 0 0
0 0 0
0 0 0
0 212 255
0 0 0
0 0 0
0 0 0
0 0 0
0 0 0
0 0 0
0 0 0
0 0 0
0 0 0
0 0 0
0 0 0
0 0 0
0 0 0
255 178 0
0 0 0
0 0 0
0 0 0
0 0 0
0 255 29
0 0 0
0 0 0
0 0 0
0 0 0
0 0 0
0 0 0
0 0 0
0 0 0
0 0 0
0 0 0
0 212 255
0 0 0
0 0 0
0 0 0
0 0 0
0 0 0
0 0 0
0 0 0
0 0 0
0 0 0
153 255 0
153 255 0
153 255 0
153 255 0
255 178 0
255 178 0
255 178 0
255 178 0
255 178 0
255 178 0
255 178 0
255 178 0
255 178 0
255 178 0
255 178 0
255 178 0
255 178 0
255 178 0
255 178 0
255 178 0
255 178 0
255 178 0
255 178 0
255 178 0
255 178 0
255 178 0
255 178 0
255 178 0
0 0 0
0 0 0
0 0 0
0 0 0
0 0 0
0 0 0
242 255 0
0 0 0
0 0 0
0 0 0
0 0 0
0 0 0
0 0 0
0 0 0
0 255 208
0 0 0
0 0 0
0 0 0
0 0 0
0 0 0
0 0 0
0 0 0
0 0 0
0 0 0
0 0 0
0 0 0
0 0 0
0 0 0
0 0 0
255 178 0
0 0 0
0 0 0
0 0 0
0 0 0
0 0 0
0 0 0
242 255 0
0 0 0
0 0 0
0 0 0
0 0 0
0 0 0
0 0 0
0 0 0
0 255 208
0 0 0
0 0 0
0 0 0
0 0 0
0 0 0
0 0 0
0 0 0
0 0 0
0 0 0
0 0 0
0 0 0
0 0 0
0 0 0
0 0 0
255 178 0
0 0 0
0 0 0
0 0 0
0 0 0
0 0 0
0 0 0
242 255 0
0 0 0
0 0 0
0 0 0
0 0 0
0 0 0
0 0 0
0 0 0
0 255 208
0 0 0
0 0 0
0 0 0
0 0 0
0 0 0
0 0 0
0 0 0
0 0 0
0 0 0
0 0 0
0 0 0
0 0 0
0 0 0
0 0 0
255 178 0
0 0 0
0 0 0
0 0 0
0 0 0
0 0 0
0 0 0
242 255 0
0 0 0
0 0 0
0 0 0
0 0 0
0 0 0
0 0 0
0 0 0
0 255 208
0 0 0
0 0 0
0 0 0
0 0 0
0 0 0
0 0 0
0 0 0
0 0 0
0 0 0
0 0 0
0 0 0
0 0 0
0 0 0
0 0 0
255 178 0
0 0 0
0 0 0
0 0 0
0 0 0
0 0 0
0 0 0
242 255 0
242 255 0
242 255 0
242 255 0
242 255 0
242 255 0
242 255 0
242 255 0
242 255 0
0 0 0
0 0 0
0 0 0
0 0 0
0 0 0
0 0 0
0 34 255
0 34 255
0 34 255
0 34 255
255 178 0
255 178 0
255 178 0
255 178 0
255 178 0
0 0 0
0 0 0
0 0 0
0 0 0
0 0 0
0 0 0
63 255 0
0 0 0
0 255 119
0 0 0
0 0 0
0 0 0
0 0 0
0 0 0
242 255 0
0 0 0
0 0 0
0 0 0
0 0 0
0 0 0
0 0 0
0 34 255
0 0 0
0 0 0
0 0 0
0 0 0
0 0 0
0 0 0
0 0 0
0 0 0
0 0 0
0 0 0
0 0 0
0 0 0
0 0 0
0 0 0
63 255 0
63 255 0
0 255 119
0 0 0
0 0 0
0 0 0
0 0 0
0 0 0
242 255 0
0 0 0
0 0 0
0 0 0
0 0 0
0 0 0
0 0 0
0 34 255
0 0 0
0 0 0
0 0 0
0 0 0
0 0 0
0 0 0
0 0 0
0 0 0
0 0 0
0 0 0
0 0 0
0 0 0
0 0 0
0 0 0
0 0 0
0 0 0
0 0 0
0 0 0
0 0 0
0 0 0
0 0 0
0 0 0
242 255 0
0 0 0
0 0 0
0 0 0
0 0 0
0 0 0
0 0 0
0 34 255
0 0 0
0 0 0
0 0 0
0 0 0
0 0 0
0 0 0
0 0 0
0 0 0
0 0 0
0 0 0
0 0 0
0 0 0
0 0 0
0 0 0
0 0 0
0 0 0
0 0 0
0 0 0
0 0 0
0 0 0
0 0 0
0 0 0
242 255 0
0 0 0
0 0 0
0 0 0
0 0 0
0 0 0
0 0 0
0 34 255
0 0 0
0 0 0
0 0 0
0 0 0
0 0 0
0 0 0
0 0 0
0 0 0
0 0 0
0 0 0
0 123 255
0 123 255
0 123 255
0 123 255
0 123 255
0 123 255
0 123 255
0 123 255
0 123 255
0 123 255
0 123 255
0 123 255
242 255 0
242 255 0
242 255 0
242 255 0
242 255 0
242 255 0
242 255 0
242 255 0
242 255 0
242 255 0
242 255 0
242 255 0
242 255 0
242 255 0
242 255 0
242 255 0
0 0 0
0 0 0
0 123 255
0 0 0
0 0 0
0 0 0
0 0 0
0 0 0
0 0 0
0 0 0
0 0 0
0 0 0
0 0 0
0 0 0
0 0 0
0 0 0
0 0 0
0 0 0
0 0 0
0 0 0
0 0 0
0 0 0
0 0 0
0 0 0
0 0 0
0 0 0
0 0 0
0 0 0
0 0 0
242 255 0
0 0 0
0 0 0
0 123 255
0 0 0
0 0 0
0 0 0
0 0 0
0 0 0
0 0 0
0 0 0
0 0 0
0 0 0
0 0 0
0 0 0
0 0 0
0 0 0
0 0 0
0 0 0
0 0 0
0 0 0
0 0 0
0 0 0
0 0 0
0 0 0
0 0 0
0 0 0
0 0 0
0 0 0
0 0 0
242 255 0
0 0 0
0 0 0
0 123 255
0 0 0
0 0 0
0 0 0
0 0 0
0 0 0
0 0 0
0 0 0
0 0 0
0 0 0
0 0 0
0 0 0
0 0 0
0 0 0
0 0 0
0 0 0
0 0 0
0 0 0
0 0 0
0 0 0
0 0 0
0 0 0
0 0 0
0 0 0
0 0 0
0 0 0
0 0 0
242 255 0
0 0 0
0 0 0
0 123 255
0 0 0
0 0 0
0 0 0
0 0 0
0 0 0
0 0 0
148 0 255
0 0 0
0 0 0
0 0 0
0 0 0
0 0 0
0 0 0
0 0 0
0 0 0
0 0 0
0 0 0
0 0 0
0 0 0
0 0 0
0 0 0
0 0 0
0 0 0
0 0 0
0 0 0
0 0 0
242 255 0
0 0 0
0 0 0
0 123 255
0 123 255
0 123 255
0 123 255
0 123 255
0 123 255
0 123 255
0 123 255
0 123 255
0 123 255
0 123 255
0 123 255
0 123 255
0 123 255
0 123 255
0 123 255
255 0 93
255 0 93
255 0 93
242 255 0
242 255 0
242 255 0
242 255 0
242 255 0
242 255 0
242 255 0
242 255 0
242 255 0
0 0 0
0 0 0
0 0 0
0 0 0
0 0 0
0 0 0
0 0 0
0 0 0
0 0 0
59 0 255
0 0 0
238 0 255
0 0 0
0 0 0
0 0 0
0 0 0
0 0 0
0 0 0
0 0 0
0 0 0
0 0 0
242 255 0
0 0 0
0 0 0
0 0 0
0 0 0
0 0 0
0 0 0
0 0 0
0 0 0
0 0 0
0 0 0
0 0 0
0 0 0
0 0 0
0 0 0
0 0 0
0 0 0
0 0 0
59 0 255
0 0 0
0 0 0
0 0 0
0 0 0
0 0 0
0 0 0
0 0 0
0 0 0
0 0 0
0 0 0
0 0 0
242 255 0
0 0 0
0 0 0
0 0 0
0 0 0
0 0 0
0 0 0
0 0 0
0 0 0
0 0 0
0 0 0
0 0 0
0 0 0
0 0 0
0 0 0
0 0 0
0 0 0
0 0 0
59 0 255
0 0 0
0 0 0
0 0 0
0 0 0
0 0 0
0 0 0
0 0 0
0 0 0
0 0 0
0 0 0
0 0 0
242 255 0
0 0 0
0 0 0
0 0 0
0 0 0
0 0 0
0 0 0
0 0 0
0 0 0
0 0 0
0 0 0
255 0 182
255 0 182
255 0 182
255 0 182
255 0 182
255 0 182
255 0 182
59 0 255
59 0 255
59 0 255
59 0 255
59 0 255
59 0 255
59 0 255
59 0 255
59 0 255
255 0 0
255 0 0
255 0 0
242 255 0
242 255 0
242 255 0
242 255 0
242 255 0
242 255 0
242 255 0
242 255 0
242 255 0
0 0 0
0 0 0
255 0 182
0 0 0
0 0 0
0 0 0
0 0 0
0 0 0
0 0 0
0 0 0
0 0 0
0 0 0
0 0 0
0 0 0
0 0 0
0 0 0
0 0 0
0 0 0
0 0 0
0 0 0
0 0 0
0 0 0
0 0 0
0 0 0
0 0 0
0 0 0
0 0 0
0 0 0
0 0 0
0 0 0
0 0 0
0 0 0
255 0 182
255 0 182
255 0 182
255 0 182
255 0 182
255 0 182
255 0 182
255 0 182
255 0 182
255 0 182
255 0 182
255 0 182
255 0 182
255 0 182
255 0 182
255 0 182
255 0 182
255 0 182
255 0 182
255 0 182
255 0 182
255 0 182
255 0 182
255 0 182
255 0 182
255 0 182
255 0 182
255 0 182
0 0 0
0 0 0
0 0 0
0 0 0
0 0 0
0 0 0
0 0 0
0 0 0
0 0 0
0 0 0
0 0 0
0 0 0
0 0 0
0 0 0
0 0 0
0 0 0
0 0 0
0 0 0
0 0 0
0 0 0
0 0 0
0 0 0
0 0 0
0 0 0
0 0 0
0 0 0
0 0 0
0 0 0
0 0 0
255 0 182
0 0 0
0 0 0
0 0 0
0 0 0
0 0 0
0 0 0
0 0 0
0 0 0
0 0 0
0 0 0
0 0 0
0 0 0
0 0 0
0 0 0
0 0 0
0 0 0
0 0 0
0 0 0
0 0 0
0 0 0
0 0 0
0 0 0
0 0 0
0 0 0
0 0 0
0 0 0
0 0 0
0 0 0
0 0 0
255 0 182
0 0 0
0 0 0
0 0 0
0 0 0
0 0 0
0 0 0
0 0 0
0 0 0
0 0 0
0 0 0
0 0 0
0 0 0
0 0 0
0 0 0
0 0 0
0 0 0
0 0 0
0 0 0
0 0 0
0 0 0
0 0 0
0 0 0
0 0 0
0 0 0
0 0 0
0 0 0
0 0 0
0 0 0
0 0 0
0 0 0
0 0 0
